<svg width="50" height="51" viewBox="0 0 50 51" fill="none" xmlns="http://www.w3.org/2000/svg">
<g clip-path="url(#clip0_105_2377)">
<path d="M25 51C38.8071 51 50 39.5833 50 25.5C50 11.4167 38.8071 0 25 0C11.1929 0 0 11.4167 0 25.5C0 39.5833 11.1929 51 25 51Z" fill="#F0F0F0"/>
<path d="M25 0C11.193 0 0 11.4168 0 25.5C0 28.6192 0.550098 31.6072 1.55498 34.3695H48.4451C49.45 31.6072 50 28.6192 50 25.5C50 11.4168 38.807 0 25 0Z" fill="#0052B4"/>
<path d="M25.0002 0C14.2511 0 5.0875 6.92006 1.55518 16.6305H48.4453C44.9129 6.92006 35.7493 0 25.0002 0V0Z" fill="#D80027"/>
<path d="M6.46484 14.4131V27.1338C6.46484 34.3698 15.7325 36.587 15.7325 36.587C15.7325 36.587 25.0001 34.3698 25.0001 27.1338V14.4131H6.46484Z" fill="#D80027"/>
<path d="M10.2979 16.6305H21.1675V12.1957L18.9936 13.3043L15.7327 9.97827L12.4718 13.3043L10.2979 12.1957V16.6305Z" fill="#FFDA44"/>
<path d="M22.8263 28.9049L15.761 21.6984L8.6958 28.9049L11.0016 31.2568L15.761 26.4021L20.5205 31.2568L22.8263 28.9049Z" fill="#FFDA44"/>
<path d="M22.8263 22.174H19.5298C19.7151 21.8477 19.8229 21.4698 19.8229 21.0655C19.8229 19.8408 18.8496 18.8481 17.649 18.8481C16.8194 18.8481 16.099 19.3221 15.7325 20.0189C15.366 19.3222 14.6456 18.8481 13.816 18.8481C12.6154 18.8481 11.6421 19.8408 11.6421 21.0655C11.6421 21.4698 11.7499 21.8478 11.9353 22.174H8.6958C8.6958 23.3987 9.7416 24.3914 10.9421 24.3914H10.8697C10.8697 25.6161 11.843 26.6088 13.0437 26.6088C13.0437 27.6932 13.8071 28.594 14.8154 28.7869L13.1025 32.7316C13.9234 33.072 14.8205 33.261 15.7611 33.261C16.7018 33.261 17.5988 33.072 18.4197 32.7316L16.7068 28.7869C17.7151 28.5942 18.4786 27.6933 18.4786 26.6088C19.6793 26.6088 20.6525 25.6161 20.6525 24.3914H20.5802C21.7806 24.3914 22.8263 23.3986 22.8263 22.174V22.174Z" fill="#F0F0F0"/>
</g>
<defs>
<clipPath id="clip0_105_2377">
<rect width="50" height="51" fill="white"/>
</clipPath>
</defs>
</svg>
