<svg width="50" height="51" viewBox="0 0 50 51" fill="none" xmlns="http://www.w3.org/2000/svg">
<g clip-path="url(#clip0_105_1019)">
<path d="M25 51C38.8071 51 50 39.5833 50 25.5C50 11.4167 38.8071 0 25 0C11.1929 0 0 11.4167 0 25.5C0 39.5833 11.1929 51 25 51Z" fill="#6DA544"/>
<path d="M24.9998 9.97827L45.6519 25.5L24.9998 41.0217L4.34766 25.5L24.9998 9.97827Z" fill="#FFDA44"/>
<path d="M24.9998 34.3694C29.8023 34.3694 33.6954 30.3984 33.6954 25.4999C33.6954 20.6014 29.8023 16.6304 24.9998 16.6304C20.1974 16.6304 16.3042 20.6014 16.3042 25.4999C16.3042 30.3984 20.1974 34.3694 24.9998 34.3694Z" fill="#F0F0F0"/>
<path d="M20.6521 24.9456C19.14 24.9456 17.6808 25.1801 16.3071 25.6154C16.368 30.4604 20.2355 34.3695 25 34.3695C27.9461 34.3695 30.548 32.8737 32.121 30.5875C29.4299 27.1513 25.2892 24.9456 20.6521 24.9456V24.9456Z" fill="#0052B4"/>
<path d="M33.5345 27.1992C33.6392 26.649 33.6957 26.0813 33.6957 25.4999C33.6957 20.6013 29.8025 16.6304 25.0001 16.6304C21.4167 16.6304 18.3405 18.8418 17.0093 21.9992C18.186 21.7505 19.4044 21.6195 20.6523 21.6195C25.7028 21.6194 30.2718 23.7608 33.5345 27.1992V27.1992Z" fill="#0052B4"/>
</g>
<defs>
<clipPath id="clip0_105_1019">
<rect width="50" height="51" fill="white"/>
</clipPath>
</defs>
</svg>
