<svg width="50" height="51" viewBox="0 0 50 51" fill="none" xmlns="http://www.w3.org/2000/svg">
<g clip-path="url(#clip0_105_2248)">
<path d="M0 25.5C0 36.464 6.78438 45.8108 16.3042 49.4138L18.4782 25.4999L16.3042 1.58606C6.78438 5.18913 0 14.5359 0 25.5Z" fill="#6DA544"/>
<path d="M50 25.5C50 11.4168 38.807 0 25 0C21.942 0 19.0126 0.5611 16.3042 1.58608V49.4139C19.0126 50.439 21.942 51 25 51C38.807 51 50 39.5832 50 25.5Z" fill="#D80027"/>
<path d="M16.3045 34.3695C21.1069 34.3695 25.0001 30.3985 25.0001 25.5C25.0001 20.6015 21.1069 16.6305 16.3045 16.6305C11.502 16.6305 7.60889 20.6015 7.60889 25.5C7.60889 30.3985 11.502 34.3695 16.3045 34.3695Z" fill="#FFDA44"/>
<path d="M11.4131 21.0652V26.6086C11.4131 29.364 13.6029 31.5978 16.3044 31.5978C19.0059 31.5978 21.1957 29.3641 21.1957 26.6086V21.0652H11.4131Z" fill="#D80027"/>
<path d="M16.3043 28.2717C15.4053 28.2717 14.6738 27.5257 14.6738 26.6087V24.3914H17.9347V26.6088C17.9347 27.5257 17.2032 28.2717 16.3043 28.2717Z" fill="#F0F0F0"/>
</g>
<defs>
<clipPath id="clip0_105_2248">
<rect width="50" height="51" fill="white"/>
</clipPath>
</defs>
</svg>
