<svg width="50" height="51" viewBox="0 0 50 51" fill="none" xmlns="http://www.w3.org/2000/svg">
<g clip-path="url(#clip0_105_809)">
<path d="M14.1305 48.4697C17.4172 50.0908 21.1044 51 25 51C28.8956 51 32.5828 50.0908 35.8695 48.4697L38.0435 25.5L35.8695 2.53028C32.5828 0.909234 28.8956 0 25 0C21.1044 0 17.4172 0.909234 14.1305 2.53028L11.9565 25.5L14.1305 48.4697Z" fill="#FFDA44"/>
<path d="M35.8696 48.4689C44.232 44.3445 50.0001 35.6097 50.0001 25.5001C50.0001 15.3904 44.232 6.65568 35.8696 2.53125V48.4689Z" fill="#D80027"/>
<path d="M14.1305 48.4689V2.53125C5.76807 6.65568 0 15.3903 0 25.5001C0 35.6098 5.76807 44.3445 14.1305 48.4689Z" fill="#0052B4"/>
<path d="M25 34.3695C25 30.3004 25 25.5 25 25.5H31.5218V28.8261C31.5218 29.4039 30.4349 31.5212 27.752 33.2609C26.7358 33.9199 25.684 34.1318 25 34.3695Z" fill="#D80027"/>
<path d="M18.4783 18.8477H25V25.4999H18.4783V18.8477Z" fill="#D80027"/>
<path d="M28.2609 16.6305C28.2609 15.4058 27.2875 14.4131 26.087 14.4131C25.6905 14.4131 25.32 14.5231 25 14.7121C24.68 14.5231 24.3096 14.4131 23.9131 14.4131C22.7125 14.4131 21.7392 15.4058 21.7392 16.6305H16.3044V27.7173C16.3044 31.8447 19.5179 34.2317 22.0379 35.469C21.8494 35.7975 21.7392 36.1787 21.7392 36.587C21.7392 37.8117 22.7125 38.8044 23.9131 38.8044C24.3096 38.8044 24.6801 38.6945 25 38.5054C25.3201 38.6945 25.6905 38.8044 26.087 38.8044C27.2875 38.8044 28.2609 37.8117 28.2609 36.587C28.2609 36.1787 28.1507 35.7975 27.9621 35.469C30.4821 34.2317 33.6957 31.8448 33.6957 27.7173V16.6305H28.2609ZM30.4348 27.7173C30.4348 28.2951 30.4348 30.0534 27.752 31.7931C26.7358 32.4521 25.684 32.8795 25 33.117C24.3161 32.8795 23.2643 32.4521 22.2481 31.7931C19.5653 30.0534 19.5653 28.2951 19.5653 27.7173V19.9565H30.4348V27.7173Z" fill="#FF9811"/>
</g>
<defs>
<clipPath id="clip0_105_809">
<rect width="50" height="51" fill="white"/>
</clipPath>
</defs>
</svg>
