<svg width="50" height="52" viewBox="0 0 50 52" fill="none" xmlns="http://www.w3.org/2000/svg">
<g clip-path="url(#clip0_105_2782)">
<path d="M25 51.5811C38.8071 51.5811 50 40.1643 50 26.0811C50 11.9978 38.8071 0.581055 25 0.581055C11.1929 0.581055 0 11.9978 0 26.0811C0 40.1643 11.1929 51.5811 25 51.5811Z" fill="#F0F0F0"/>
<path d="M25 19.4291H49.1388C48.5119 17.057 47.5592 14.8216 46.3307 12.7769H25V19.4291Z" fill="#338AF3"/>
<path d="M9.43777 46.0375H40.5621C42.8436 44.1839 44.8003 41.9326 46.3305 39.3853H3.66931C5.19968 41.9325 7.15632 44.1839 9.43777 46.0375V46.0375Z" fill="#338AF3"/>
<path d="M25 0.581055V6.12452H40.5622C36.2917 2.65532 30.8837 0.581055 25 0.581055V0.581055Z" fill="#338AF3"/>
<path d="M25 19.4291H49.1388C48.5119 17.057 47.5592 14.8216 46.3307 12.7769H25V19.4291Z" fill="#338AF3"/>
<path d="M0 26.0811C0 28.3827 0.300781 30.6122 0.86123 32.7333H49.1389C49.6992 30.6122 50 28.3827 50 26.0811H0Z" fill="#338AF3"/>
<path d="M21.7391 15.5046L18.6858 16.9695L20.3117 19.9857L16.9963 19.3388L16.5761 22.7549L14.267 20.2424L11.9576 22.7549L11.5376 19.3388L8.22214 19.9855L9.84792 16.9694L6.7948 15.5046L9.84802 14.0398L8.22214 11.0236L11.5375 11.6705L11.9577 8.25439L14.267 10.7669L16.5762 8.25439L16.9963 11.6705L20.3118 11.0236L18.6859 14.0399L21.7391 15.5046Z" fill="#FFDA44"/>
</g>
<defs>
<clipPath id="clip0_105_2782">
<rect width="50" height="51" fill="white" transform="translate(0 0.581055)"/>
</clipPath>
</defs>
</svg>
