<svg width="50" height="51" viewBox="0 0 50 51" fill="none" xmlns="http://www.w3.org/2000/svg">
<g clip-path="url(#clip0_105_1747)">
<path d="M25 51.001C38.8071 51.001 50 39.5842 50 25.501C50 11.4177 38.8071 0.000976562 25 0.000976562C11.1929 0.000976562 0 11.4177 0 25.501C0 39.5842 11.1929 51.001 25 51.001Z" fill="#F0F0F0"/>
<path d="M15.2174 16.6315H48.4449C44.9127 6.92104 35.749 0.000976562 25 0.000976562C18.0963 0.000976562 11.847 2.85568 7.32315 7.47058L15.2174 16.6315Z" fill="black"/>
<path d="M15.2174 34.3706H48.4449C44.9127 44.081 35.749 51.0011 25 51.0011C18.0963 51.0011 11.847 48.1464 7.32315 43.5315L15.2174 34.3706Z" fill="#6DA544"/>
<path d="M7.32227 7.46973C-2.44082 17.4281 -2.44082 33.5739 7.32227 43.5323C11.3567 39.4171 15.2369 35.4594 25 25.501L7.32227 7.46973Z" fill="#D80027"/>
<path d="M9.92237 19.9575L11.2943 22.8839L14.3929 22.1535L13.0052 25.0722L15.4969 27.0877L12.3946 27.8008L12.4032 31.0444L9.92237 29.0151L7.44141 31.0444L7.4501 27.8008L4.34785 27.0877L6.83946 25.0722L5.45196 22.1535L8.5503 22.8839L9.92237 19.9575Z" fill="#F0F0F0"/>
</g>
<defs>
<clipPath id="clip0_105_1747">
<rect width="50" height="51" fill="white" transform="translate(0 0.000976562)"/>
</clipPath>
</defs>
</svg>
