<svg width="50" height="51" viewBox="0 0 50 51" fill="none" xmlns="http://www.w3.org/2000/svg">
<g clip-path="url(#clip0_105_1677)">
<path d="M1.55498 16.6305C0.550098 19.3931 0 22.3808 0 25.5C0 28.6192 0.550098 31.6072 1.55498 34.3695L25 36.5869L48.445 34.3695C49.4499 31.6072 50 28.6192 50 25.5C50 22.3808 49.4499 19.3931 48.445 16.6305L25 14.4131L1.55498 16.6305Z" fill="#F0F0F0"/>
<path d="M25.0001 0C14.2511 0 5.0874 6.92006 1.55518 16.6305H48.4453C44.9128 6.92006 35.7493 0 25.0001 0V0Z" fill="#D80027"/>
<path d="M25.0001 51.0001C35.7493 51.0001 44.9128 44.08 48.4452 34.3696H1.55518C5.0874 44.08 14.2511 51.0001 25.0001 51.0001V51.0001Z" fill="#6DA544"/>
</g>
<defs>
<clipPath id="clip0_105_1677">
<rect width="50" height="51" fill="white"/>
</clipPath>
</defs>
</svg>
