<svg width="50" height="51" viewBox="0 0 50 51" fill="none" xmlns="http://www.w3.org/2000/svg">
<g clip-path="url(#clip0_105_777)">
<path d="M35.8695 2.53028C32.5828 0.909234 28.8955 0 25 0C21.1045 0 17.4172 0.909234 14.1305 2.53028L11.9565 25.5L14.1305 48.4697C17.4172 50.0908 21.1045 51 25 51C28.8955 51 32.5828 50.0908 35.8695 48.4697L38.0435 25.5L35.8695 2.53028Z" fill="#D80027"/>
<path d="M14.1305 2.53125C5.76816 6.65578 0 15.3904 0 25.5001C0 35.6097 5.76816 44.3444 14.1305 48.4689V2.53125Z" fill="black"/>
<path d="M35.8696 2.53125V48.4689C44.2319 44.3444 50.0001 35.6097 50.0001 25.5001C50.0001 15.3904 44.2319 6.65578 35.8696 2.53125Z" fill="#496E2D"/>
<path d="M24.9998 16.6304C20.1973 16.6304 16.3042 20.6014 16.3042 25.4999C16.3042 30.3984 20.1974 34.3694 24.9998 34.3694C29.8022 34.3694 33.6954 30.3984 33.6954 25.4999C33.6954 20.6014 29.8023 16.6304 24.9998 16.6304ZM24.9998 31.0434C21.9982 31.0434 19.565 28.5614 19.565 25.4999C19.565 22.4384 21.9983 19.9564 24.9998 19.9564C28.0013 19.9564 30.4346 22.4384 30.4346 25.4999C30.4346 28.5614 28.0014 31.0434 24.9998 31.0434Z" fill="#FFDA44"/>
<path d="M24.9996 22.1738C23.7989 22.1738 22.8257 23.1665 22.8257 24.3912V27.7173H27.1735V24.3912C27.1735 23.1665 26.2003 22.1738 24.9996 22.1738V22.1738Z" fill="#FFDA44"/>
</g>
<defs>
<clipPath id="clip0_105_777">
<rect width="50" height="51" fill="white"/>
</clipPath>
</defs>
</svg>
